<svg width="29" height="29" viewBox="0 0 29 29" fill="none" xmlns="http://www.w3.org/2000/svg">
<path d="M18.0629 24.7C18.2519 24.7 18.4331 24.6249 18.5667 24.4913C18.7003 24.3577 18.7754 24.1765 18.7754 23.9875C18.7754 23.7985 18.7003 23.6173 18.5667 23.4837C18.4331 23.3501 18.2519 23.275 18.0629 23.275H8.80039C8.04452 23.275 7.31961 22.9747 6.78514 22.4403C6.25066 21.9058 5.95039 21.1809 5.95039 20.425V9.025C5.95039 8.26913 6.25066 7.54422 6.78514 7.00975C7.31961 6.47527 8.04452 6.175 8.80039 6.175H18.0629C18.2519 6.175 18.4331 6.09993 18.5667 5.96631C18.7003 5.83269 18.7754 5.65147 18.7754 5.4625C18.7754 5.27353 18.7003 5.09231 18.5667 4.95869C18.4331 4.82507 18.2519 4.75 18.0629 4.75H8.80039C7.66659 4.75 6.57923 5.2004 5.77751 6.00212C4.97579 6.80384 4.52539 7.8912 4.52539 9.025V20.425C4.52539 21.5588 4.97579 22.6462 5.77751 23.4479C6.57923 24.2496 7.66659 24.7 8.80039 24.7H18.0629ZM19.6959 9.23305C19.7621 9.1667 19.8408 9.11405 19.9273 9.07813C20.0139 9.04222 20.1067 9.02373 20.2004 9.02373C20.2941 9.02373 20.3869 9.04222 20.4735 9.07813C20.56 9.11405 20.6387 9.1667 20.7048 9.23305L25.6923 14.2206C25.7587 14.2867 25.8113 14.3654 25.8473 14.4519C25.8832 14.5385 25.9017 14.6313 25.9017 14.725C25.9017 14.8187 25.8832 14.9115 25.8473 14.9981C25.8113 15.0846 25.7587 15.1633 25.6923 15.2295L20.7048 20.217C20.6386 20.2832 20.56 20.3357 20.4734 20.3716C20.3868 20.4074 20.2941 20.4259 20.2004 20.4259C20.1067 20.4259 20.0139 20.4074 19.9274 20.3716C19.8408 20.3357 19.7622 20.2832 19.6959 20.217C19.6297 20.1507 19.5771 20.0721 19.5413 19.9855C19.5054 19.899 19.487 19.8062 19.487 19.7125C19.487 19.6188 19.5054 19.526 19.5413 19.4395C19.5771 19.3529 19.6297 19.2743 19.6959 19.2081L23.4679 15.4375H10.9379C10.7489 15.4375 10.5677 15.3624 10.4341 15.2288C10.3005 15.0952 10.2254 14.914 10.2254 14.725C10.2254 14.536 10.3005 14.3548 10.4341 14.2212C10.5677 14.0876 10.7489 14.0125 10.9379 14.0125H23.4679L19.6959 10.242C19.6296 10.1758 19.5769 10.0971 19.541 10.0106C19.5051 9.92402 19.4866 9.83122 19.4866 9.7375C19.4866 9.64378 19.5051 9.55098 19.541 9.46442C19.5769 9.37786 19.6296 9.29924 19.6959 9.23305Z" fill="white"/>
</svg>
