<svg width="29" height="30" viewBox="0 0 29 30" fill="none" xmlns="http://www.w3.org/2000/svg">
<path d="M8.8002 7.6998C8.8002 7.32187 8.95033 6.95942 9.21757 6.69218C9.48481 6.42494 9.84726 6.2748 10.2252 6.2748H18.7752C19.1531 6.2748 19.5156 6.42494 19.7828 6.69218C20.0501 6.95942 20.2002 7.32187 20.2002 7.6998V9.1248C20.2002 9.50274 20.0501 9.86519 19.7828 10.1324C19.5156 10.3997 19.1531 10.5498 18.7752 10.5498H10.2252C9.84726 10.5498 9.48481 10.3997 9.21757 10.1324C8.95033 9.86519 8.8002 9.50274 8.8002 9.1248V7.6998ZM10.2252 7.6998V9.1248H18.7752V7.6998H10.2252ZM5.9502 6.2748V23.3748C5.9502 24.1307 6.25046 24.8556 6.78494 25.3901C7.31942 25.9245 8.04433 26.2248 8.8002 26.2248H22.3377C22.5267 26.2248 22.7079 26.1497 22.8415 26.0161C22.9751 25.8825 23.0502 25.7013 23.0502 25.5123C23.0502 25.3233 22.9751 25.1421 22.8415 25.0085C22.7079 24.8749 22.5267 24.7998 22.3377 24.7998H8.8002C8.42226 24.7998 8.05981 24.6497 7.79257 24.3824C7.52533 24.1152 7.3752 23.7527 7.3752 23.3748H21.6252C22.0031 23.3748 22.3656 23.2247 22.6328 22.9574C22.9001 22.6902 23.0502 22.3277 23.0502 21.9498V6.2748C23.0502 5.51894 22.7499 4.79403 22.2155 4.25955C21.681 3.72507 20.9561 3.4248 20.2002 3.4248H8.8002C8.04433 3.4248 7.31942 3.72507 6.78494 4.25955C6.25046 4.79403 5.9502 5.51894 5.9502 6.2748ZM20.2002 4.8498C20.5781 4.8498 20.9406 4.99994 21.2078 5.26718C21.4751 5.53442 21.6252 5.89687 21.6252 6.2748V21.9498H7.3752V6.2748C7.3752 5.89687 7.52533 5.53442 7.79257 5.26718C8.05981 4.99994 8.42226 4.8498 8.8002 4.8498H20.2002Z" fill="#ECECEC"/>
</svg>
