<svg width="30" height="30" viewBox="0 0 30 30" fill="none" xmlns="http://www.w3.org/2000/svg">
<path d="M13.125 5.625H16.875C16.875 5.12772 16.6775 4.65081 16.3258 4.29917C15.9742 3.94754 15.4973 3.75 15 3.75C14.5027 3.75 14.0258 3.94754 13.6742 4.29917C13.3225 4.65081 13.125 5.12772 13.125 5.625ZM11.25 5.625C11.25 4.63044 11.6451 3.67661 12.3483 2.97335C13.0516 2.27009 14.0054 1.875 15 1.875C15.9946 1.875 16.9484 2.27009 17.6516 2.97335C18.3549 3.67661 18.75 4.63044 18.75 5.625H26.25C26.4986 5.625 26.7371 5.72377 26.9129 5.89959C27.0887 6.0754 27.1875 6.31386 27.1875 6.5625C27.1875 6.81114 27.0887 7.0496 26.9129 7.22541C26.7371 7.40123 26.4986 7.5 26.25 7.5H25.1925L22.9331 24.0713C22.7799 25.1943 22.225 26.2237 21.3711 26.969C20.5172 27.7143 19.4222 28.125 18.2887 28.125H11.7112C10.5778 28.125 9.48283 27.7143 8.62894 26.969C7.77505 26.2237 7.22011 25.1943 7.06687 24.0713L4.8075 7.5H3.75C3.50136 7.5 3.2629 7.40123 3.08709 7.22541C2.91127 7.0496 2.8125 6.81114 2.8125 6.5625C2.8125 6.31386 2.91127 6.0754 3.08709 5.89959C3.2629 5.72377 3.50136 5.625 3.75 5.625H11.25ZM13.125 12.1875C13.125 11.9389 13.0262 11.7004 12.8504 11.5246C12.6746 11.3488 12.4361 11.25 12.1875 11.25C11.9389 11.25 11.7004 11.3488 11.5246 11.5246C11.3488 11.7004 11.25 11.9389 11.25 12.1875V21.5625C11.25 21.8111 11.3488 22.0496 11.5246 22.2254C11.7004 22.4012 11.9389 22.5 12.1875 22.5C12.4361 22.5 12.6746 22.4012 12.8504 22.2254C13.0262 22.0496 13.125 21.8111 13.125 21.5625V12.1875ZM17.8125 11.25C18.0611 11.25 18.2996 11.3488 18.4754 11.5246C18.6512 11.7004 18.75 11.9389 18.75 12.1875V21.5625C18.75 21.8111 18.6512 22.0496 18.4754 22.2254C18.2996 22.4012 18.0611 22.5 17.8125 22.5C17.5639 22.5 17.3254 22.4012 17.1496 22.2254C16.9738 22.0496 16.875 21.8111 16.875 21.5625V12.1875C16.875 11.9389 16.9738 11.7004 17.1496 11.5246C17.3254 11.3488 17.5639 11.25 17.8125 11.25ZM8.925 23.8181C9.01702 24.4918 9.34996 25.1093 9.86221 25.5564C10.3745 26.0035 11.0313 26.2499 11.7112 26.25H18.2887C18.969 26.2504 19.6263 26.0042 20.139 25.557C20.6516 25.1099 20.9848 24.4921 21.0769 23.8181L23.3006 7.5H6.69937L8.925 23.8181Z" fill="white"/>
</svg>
