<svg width="29" height="29" viewBox="0 0 29 29" fill="none" xmlns="http://www.w3.org/2000/svg">
<path d="M13.0725 3.57777C13.4649 3.22527 13.9737 3.03027 14.5011 3.03027C15.0285 3.03027 15.5373 3.22527 15.9297 3.57777L23.7672 10.6201C23.99 10.8205 24.1682 11.0655 24.2902 11.3393C24.4122 11.613 24.4753 11.9093 24.4754 12.209V22.2624C24.4754 22.8293 24.2502 23.3729 23.8493 23.7738C23.4485 24.1747 22.9048 24.3999 22.3379 24.3999H18.7754C18.2085 24.3999 17.6648 24.1747 17.264 23.7738C16.8631 23.3729 16.6379 22.8293 16.6379 22.2624V17.2749C16.6379 17.0859 16.5628 16.9047 16.4292 16.7711C16.2956 16.6374 16.1144 16.5624 15.9254 16.5624H13.0754C12.8864 16.5624 12.7052 16.6374 12.5716 16.7711C12.438 16.9047 12.3629 17.0859 12.3629 17.2749V22.2624C12.3629 22.8293 12.1377 23.3729 11.7368 23.7738C11.336 24.1747 10.7923 24.3999 10.2254 24.3999H6.66289C6.09599 24.3999 5.55231 24.1747 5.15145 23.7738C4.75059 23.3729 4.52539 22.8293 4.52539 22.2624V12.209C4.52539 11.6034 4.78189 11.0262 5.23504 10.6201L13.0725 3.57777ZM14.9763 4.63797C14.8456 4.5206 14.6761 4.45568 14.5004 4.45568C14.3247 4.45568 14.1552 4.5206 14.0244 4.63797L6.18694 11.6803C6.11269 11.747 6.05327 11.8285 6.01252 11.9195C5.97177 12.0106 5.95061 12.1092 5.95039 12.209V22.2624C5.95039 22.4513 6.02546 22.6326 6.15908 22.7662C6.2927 22.8998 6.47392 22.9749 6.66289 22.9749H10.2254C10.4144 22.9749 10.5956 22.8998 10.7292 22.7662C10.8628 22.6326 10.9379 22.4513 10.9379 22.2624V17.2749C10.9379 16.708 11.1631 16.1643 11.564 15.7634C11.9648 15.3626 12.5085 15.1374 13.0754 15.1374H15.9254C16.4923 15.1374 17.036 15.3626 17.4368 15.7634C17.8377 16.1643 18.0629 16.708 18.0629 17.2749V22.2624C18.0629 22.4513 18.138 22.6326 18.2716 22.7662C18.4052 22.8998 18.5864 22.9749 18.7754 22.9749H22.3379C22.5269 22.9749 22.7081 22.8998 22.8417 22.7662C22.9753 22.6326 23.0504 22.4513 23.0504 22.2624V12.209C23.0502 12.1092 23.029 12.0106 22.9883 11.9195C22.9475 11.8285 22.8881 11.747 22.8138 11.6803L14.9763 4.63797Z" fill="white"/>
</svg>
