<svg width="27" height="28" viewBox="0 0 27 28" xmlns="http://www.w3.org/2000/svg">
<path d="M16.7012 5.58196C16.8044 5.68492 16.8863 5.80722 16.9422 5.94187C16.9981 6.07653 17.0268 6.22088 17.0268 6.36666C17.0268 6.51245 16.9981 6.6568 16.9422 6.79145C16.8863 6.9261 16.8044 7.04841 16.7012 7.15136L9.72535 14.125L16.7012 21.0986C16.8042 21.2017 16.886 21.324 16.9418 21.4587C16.9975 21.5933 17.0262 21.7376 17.0262 21.8833C17.0262 22.0291 16.9975 22.1734 16.9418 22.308C16.886 22.4426 16.8042 22.565 16.7012 22.668C16.5982 22.7711 16.4758 22.8528 16.3412 22.9086C16.2065 22.9644 16.0622 22.9931 15.9165 22.9931C15.7708 22.9931 15.6265 22.9644 15.4918 22.9086C15.3572 22.8528 15.2348 22.7711 15.1318 22.668L7.37347 14.9097C7.27025 14.8067 7.18836 14.6844 7.13249 14.5498C7.07661 14.4151 7.04785 14.2708 7.04785 14.125C7.04785 13.9792 7.07661 13.8349 7.13249 13.7002C7.18836 13.5656 7.27025 13.4432 7.37347 13.3403L15.1318 5.58196C15.2348 5.47875 15.3571 5.39686 15.4917 5.34098C15.6264 5.28511 15.7707 5.25635 15.9165 5.25635C16.0623 5.25635 16.2066 5.28511 16.3413 5.34098C16.4759 5.39686 16.5982 5.47875 16.7012 5.58196Z"/>
</svg>
