<svg width="22" height="22" viewBox="0 0 22 22" fill="none" xmlns="http://www.w3.org/2000/svg">
<g opacity="0.5">
<path d="M3.1626 8.53675V15.0184C3.1626 15.7112 3.43784 16.3757 3.92778 16.8657C4.41772 17.3556 5.08222 17.6309 5.7751 17.6309H16.2251C16.918 17.6309 17.5825 17.3556 18.0724 16.8657C18.5624 16.3757 18.8376 15.7112 18.8376 15.0184V7.18086C18.8376 6.48798 18.5624 5.82348 18.0724 5.33354C17.5825 4.8436 16.918 4.56836 16.2251 4.56836H5.7751C5.08222 4.56836 4.41772 4.8436 3.92778 5.33354C3.43784 5.82348 3.1626 6.48798 3.1626 7.18086V8.53675ZM5.7751 5.87461H16.2251C16.5715 5.87461 16.9038 6.01223 17.1488 6.2572C17.3937 6.50217 17.5313 6.83442 17.5313 7.18086V8.14748L11.0001 11.6639L4.46885 8.14748V7.18086C4.46885 6.83442 4.60647 6.50217 4.85144 6.2572C5.09641 6.01223 5.42866 5.87461 5.7751 5.87461ZM4.46885 9.63138L10.6905 12.9806C10.7857 13.0318 10.892 13.0586 11.0001 13.0586C11.1082 13.0586 11.2145 13.0318 11.3097 12.9806L17.5313 9.63138V15.0184C17.5313 15.3648 17.3937 15.697 17.1488 15.942C16.9038 16.187 16.5715 16.3246 16.2251 16.3246H5.7751C5.42866 16.3246 5.09641 16.187 4.85144 15.942C4.60647 15.697 4.46885 15.3648 4.46885 15.0184V9.63138Z" fill="#838383"/>
</g>
</svg>
