<svg width="24" height="24" viewBox="0 0 24 24" fill="none" xmlns="http://www.w3.org/2000/svg">
<path d="M2.3999 5.40005C2.3999 5.24092 2.46312 5.08831 2.57564 4.97578C2.68816 4.86326 2.84077 4.80005 2.9999 4.80005H20.9999C21.159 4.80005 21.3116 4.86326 21.4242 4.97578C21.5367 5.08831 21.5999 5.24092 21.5999 5.40005C21.5999 5.55918 21.5367 5.71179 21.4242 5.82431C21.3116 5.93683 21.159 6.00005 20.9999 6.00005H2.9999C2.84077 6.00005 2.68816 5.93683 2.57564 5.82431C2.46312 5.71179 2.3999 5.55918 2.3999 5.40005ZM2.3999 11.4C2.3999 11.2409 2.46312 11.0883 2.57564 10.9758C2.68816 10.8633 2.84077 10.8 2.9999 10.8H20.9999C21.159 10.8 21.3116 10.8633 21.4242 10.9758C21.5367 11.0883 21.5999 11.2409 21.5999 11.4C21.5999 11.5592 21.5367 11.7118 21.4242 11.8243C21.3116 11.9368 21.159 12 20.9999 12H2.9999C2.84077 12 2.68816 11.9368 2.57564 11.8243C2.46312 11.7118 2.3999 11.5592 2.3999 11.4ZM2.9999 16.8C2.84077 16.8 2.68816 16.8633 2.57564 16.9758C2.46312 17.0883 2.3999 17.2409 2.3999 17.4C2.3999 17.5592 2.46312 17.7118 2.57564 17.8243C2.68816 17.9368 2.84077 18 2.9999 18H20.9999C21.159 18 21.3116 17.9368 21.4242 17.8243C21.5367 17.7118 21.5999 17.5592 21.5999 17.4C21.5999 17.2409 21.5367 17.0883 21.4242 16.9758C21.3116 16.8633 21.159 16.8 20.9999 16.8H2.9999Z" fill="black"/>
</svg>
