<svg width="22" height="21" viewBox="0 0 22 21" fill="none" xmlns="http://www.w3.org/2000/svg">
<g opacity="0.5">
<path d="M9.15747 8.58843C9.10893 8.53977 9.05128 8.50117 8.9878 8.47482C8.92432 8.44848 8.85627 8.43493 8.78754 8.43493C8.71881 8.43493 8.65076 8.44848 8.58728 8.47482C8.5238 8.50117 8.46615 8.53977 8.41761 8.58843L7.74254 9.26454L7.06747 8.58843C6.96936 8.49032 6.83629 8.4352 6.69754 8.4352C6.55879 8.4352 6.42572 8.49032 6.32761 8.58843C6.2295 8.68654 6.17438 8.81961 6.17438 8.95836C6.17438 9.09711 6.2295 9.23018 6.32761 9.32829L7.00372 10.0034L6.32761 10.6784C6.2295 10.7765 6.17438 10.9096 6.17438 11.0484C6.17438 11.1871 6.2295 11.3202 6.32761 11.4183C6.42572 11.5164 6.55879 11.5715 6.69754 11.5715C6.83629 11.5715 6.96936 11.5164 7.06747 11.4183L7.74254 10.7422L8.41761 11.4183C8.51572 11.5164 8.64879 11.5715 8.78754 11.5715C8.92629 11.5715 9.05936 11.5164 9.15747 11.4183C9.25558 11.3202 9.3107 11.1871 9.3107 11.0484C9.3107 10.9096 9.25558 10.7765 9.15747 10.6784L8.48135 10.0034L9.15747 9.32829C9.20613 9.27975 9.24473 9.22209 9.27107 9.15862C9.29742 9.09514 9.31097 9.02709 9.31097 8.95836C9.31097 8.88963 9.29742 8.82158 9.27107 8.7581C9.24473 8.69462 9.20613 8.63696 9.15747 8.58843ZM12.5976 8.58843C12.6957 8.49032 12.8288 8.4352 12.9675 8.4352C13.1063 8.4352 13.2394 8.49032 13.3375 8.58843C13.4356 8.68654 13.4907 8.81961 13.4907 8.95836C13.4907 9.09711 13.4356 9.23018 13.3375 9.32829L12.6614 10.0034L13.3375 10.6784C13.4356 10.7765 13.4907 10.9096 13.4907 11.0484C13.4907 11.1871 13.4356 11.3202 13.3375 11.4183C13.2394 11.5164 13.1063 11.5715 12.9675 11.5715C12.8288 11.5715 12.6957 11.5164 12.5976 11.4183L11.9225 10.7422L11.2475 11.4183C11.1494 11.5164 11.0163 11.5715 10.8775 11.5715C10.7388 11.5715 10.6057 11.5164 10.5076 11.4183C10.4095 11.3202 10.3544 11.1871 10.3544 11.0484C10.3544 10.9096 10.4095 10.7765 10.5076 10.6784L11.1837 10.0034L10.5076 9.32829C10.4095 9.23018 10.3544 9.09711 10.3544 8.95836C10.3544 8.81961 10.4095 8.68654 10.5076 8.58843C10.6057 8.49032 10.7388 8.4352 10.8775 8.4352C11.0163 8.4352 11.1494 8.49032 11.2475 8.58843L11.9225 9.26454L12.5976 8.58843ZM15.0575 10.5259C14.919 10.5259 14.7861 10.5809 14.6881 10.6789C14.5901 10.7769 14.535 10.9098 14.535 11.0484C14.535 11.1869 14.5901 11.3198 14.6881 11.4178C14.7861 11.5158 14.919 11.5709 15.0575 11.5709H17.1475C17.2861 11.5709 17.419 11.5158 17.517 11.4178C17.615 11.3198 17.67 11.1869 17.67 11.0484C17.67 10.9098 17.615 10.7769 17.517 10.6789C17.419 10.5809 17.2861 10.5259 17.1475 10.5259H15.0575ZM5.91379 4.25586C5.15162 4.25586 4.42067 4.55863 3.88174 5.09756C3.34281 5.63649 3.04004 6.36744 3.04004 7.12961V12.8771C3.04004 13.6393 3.34281 14.3702 3.88174 14.9092C4.42067 15.4481 5.15162 15.7509 5.91379 15.7509H16.8863C17.6485 15.7509 18.3794 15.4481 18.9183 14.9092C19.4573 14.3702 19.76 13.6393 19.76 12.8771V7.12961C19.76 6.36744 19.4573 5.63649 18.9183 5.09756C18.3794 4.55863 17.6485 4.25586 16.8863 4.25586H5.91379ZM4.08504 7.12961C4.08504 6.12014 4.90432 5.30086 5.91379 5.30086H16.8863C17.8958 5.30086 18.715 6.12014 18.715 7.12961V12.8771C18.715 13.3621 18.5224 13.8273 18.1794 14.1702C17.8365 14.5132 17.3713 14.7059 16.8863 14.7059H5.91379C5.42877 14.7059 4.96362 14.5132 4.62067 14.1702C4.27771 13.8273 4.08504 13.3621 4.08504 12.8771V7.12961Z" fill="#838383"/>
</g>
</svg>
