<svg width="29" height="29" viewBox="0 0 29 29" fill="none" xmlns="http://www.w3.org/2000/svg">
<path d="M6.6627 9.94375C6.6627 9.0934 7.0005 8.27788 7.60178 7.67659C8.20307 7.0753 9.0186 6.7375 9.86895 6.7375C10.7193 6.7375 11.5348 7.0753 12.1361 7.67659C12.7374 8.27788 13.0752 9.0934 13.0752 9.94375C13.0752 10.7941 12.7374 11.6096 12.1361 12.2109C11.5348 12.8122 10.7193 13.15 9.86895 13.15C9.0186 13.15 8.20307 12.8122 7.60178 12.2109C7.0005 11.6096 6.6627 10.7941 6.6627 9.94375ZM9.86895 5.3125C8.64066 5.3125 7.46269 5.80043 6.59416 6.66896C5.72563 7.53749 5.2377 8.71547 5.2377 9.94375C5.2377 11.172 5.72563 12.35 6.59416 13.2185C7.46269 14.0871 8.64066 14.575 9.86895 14.575C11.0972 14.575 12.2752 14.0871 13.1437 13.2185C14.0123 12.35 14.5002 11.172 14.5002 9.94375C14.5002 8.71547 14.0123 7.53749 13.1437 6.66896C12.2752 5.80043 11.0972 5.3125 9.86895 5.3125ZM17.9729 21.9066C18.7396 22.2201 19.7043 22.4125 20.9127 22.4125C23.5931 22.4125 25.0751 21.4606 25.856 20.369C26.2634 19.7962 26.5189 19.1294 26.5984 18.4311C26.6056 18.3662 26.6103 18.3011 26.6127 18.2358V18.1375C26.6127 17.8568 26.5574 17.5788 26.45 17.3195C26.3426 17.0602 26.1851 16.8245 25.9866 16.6261C25.7882 16.4276 25.5525 16.2701 25.2932 16.1627C25.0338 16.0553 24.7559 16 24.4752 16H17.8774C18.2194 16.4132 18.4759 16.8963 18.6256 17.425H24.4752C24.6642 17.425 24.8454 17.5001 24.979 17.6337C25.1126 17.7673 25.1877 17.9485 25.1877 18.1375V18.2144L25.1806 18.2857C25.126 18.7375 24.9595 19.1686 24.6961 19.5397C24.2301 20.1938 23.2183 20.9875 20.9127 20.9875C19.8696 20.9875 19.0915 20.825 18.5087 20.5871C18.3919 20.9861 18.2223 21.4364 17.9729 21.9066ZM2.3877 18.85C2.3877 18.0941 2.68796 17.3692 3.22244 16.8347C3.75692 16.3003 4.48183 16 5.2377 16H14.5002C15.2561 16 15.981 16.3003 16.5154 16.8347C17.0499 17.3692 17.3502 18.0941 17.3502 18.85V18.9697C17.3502 18.9839 17.3502 19.0025 17.3473 19.0267C17.33 19.3088 17.2895 19.5891 17.2262 19.8646C17.1051 20.389 16.8643 21.0901 16.3783 21.7941C15.3794 23.239 13.45 24.55 9.86895 24.55C6.28792 24.55 4.35847 23.239 3.35955 21.7941C2.83347 21.0278 2.50545 20.1431 2.4048 19.2191C2.39628 19.1362 2.39058 19.053 2.3877 18.9697V18.85ZM3.8127 18.9355V18.9611L3.82267 19.0794C3.89988 19.7625 4.14356 20.4162 4.53232 20.9832C5.2263 21.9864 6.68122 23.125 9.86895 23.125C13.0567 23.125 14.5116 21.9864 15.2056 20.9832C15.5944 20.4163 15.8381 19.7626 15.9152 19.0794C15.9199 19.0402 15.9227 19.0007 15.9238 18.9611L15.9252 18.9369V18.85C15.9252 18.4721 15.7751 18.1096 15.5078 17.8424C15.2406 17.5751 14.8781 17.425 14.5002 17.425H5.2377C4.85976 17.425 4.49731 17.5751 4.23007 17.8424C3.96283 18.1096 3.8127 18.4721 3.8127 18.85V18.9355ZM18.7752 11.0125C18.7752 10.4456 19.0004 9.90192 19.4013 9.50106C19.8021 9.1002 20.3458 8.875 20.9127 8.875C21.4796 8.875 22.0233 9.1002 22.4241 9.50106C22.825 9.90192 23.0502 10.4456 23.0502 11.0125C23.0502 11.5794 22.825 12.1231 22.4241 12.5239C22.0233 12.9248 21.4796 13.15 20.9127 13.15C20.3458 13.15 19.8021 12.9248 19.4013 12.5239C19.0004 12.1231 18.7752 11.5794 18.7752 11.0125ZM20.9127 7.45C19.9679 7.45 19.0617 7.82533 18.3936 8.49343C17.7255 9.16153 17.3502 10.0677 17.3502 11.0125C17.3502 11.9573 17.7255 12.8635 18.3936 13.5316C19.0617 14.1997 19.9679 14.575 20.9127 14.575C21.8575 14.575 22.7637 14.1997 23.4318 13.5316C24.0999 12.8635 24.4752 11.9573 24.4752 11.0125C24.4752 10.0677 24.0999 9.16153 23.4318 8.49343C22.7637 7.82533 21.8575 7.45 20.9127 7.45Z" fill="#ECECEC"/>
</svg>
