<svg width="29" height="29" viewBox="0 0 29 29" fill="none" xmlns="http://www.w3.org/2000/svg">
<path d="M13.0746 2.9248C11.5629 2.9248 10.1131 3.52534 9.0441 4.5943C7.97514 5.66325 7.37461 7.11307 7.37461 8.6248C7.37461 10.1365 7.97514 11.5864 9.0441 12.6553C10.1131 13.7243 11.5629 14.3248 13.0746 14.3248C14.5863 14.3248 16.0362 13.7243 17.1051 12.6553C18.1741 11.5864 18.7746 10.1365 18.7746 8.6248C18.7746 7.11307 18.1741 5.66325 17.1051 4.5943C16.0362 3.52534 14.5863 2.9248 13.0746 2.9248ZM8.79961 8.6248C8.79961 7.491 9.25001 6.40364 10.0517 5.60192C10.8534 4.80021 11.9408 4.3498 13.0746 4.3498C14.2084 4.3498 15.2958 4.80021 16.0975 5.60192C16.8992 6.40364 17.3496 7.491 17.3496 8.6248C17.3496 9.75861 16.8992 10.846 16.0975 11.6477C15.2958 12.4494 14.2084 12.8998 13.0746 12.8998C11.9408 12.8998 10.8534 12.4494 10.0517 11.6477C9.25001 10.846 8.79961 9.75861 8.79961 8.6248ZM5.96243 15.7498C5.58714 15.7483 5.21524 15.8209 4.86807 15.9634C4.5209 16.106 4.20527 16.3156 3.9393 16.5804C3.67333 16.8452 3.46225 17.1599 3.31816 17.5064C3.17406 17.8529 3.09979 18.2245 3.09961 18.5998C3.09961 21.0095 4.28663 22.8264 6.14198 24.0105C7.96883 25.1748 10.4312 25.7248 13.0746 25.7248C13.6589 25.7248 14.2374 25.6977 14.7989 25.6436C14.4588 25.2203 14.1637 24.7628 13.9182 24.2784C13.6418 24.2927 13.3596 24.2998 13.0746 24.2998C10.6022 24.2998 8.43338 23.7811 6.90863 22.8078C5.41238 21.8531 4.52461 20.4666 4.52461 18.5998C4.52461 17.8118 5.16301 17.1748 5.96243 17.1748H13.9282C14.1904 16.6647 14.5053 16.1873 14.8658 15.7498H5.96386H5.96243ZM27.3246 20.7373C27.3246 22.438 26.649 24.069 25.4464 25.2716C24.2439 26.4742 22.6128 27.1498 20.9121 27.1498C19.2114 27.1498 17.5804 26.4742 16.3778 25.2716C15.1752 24.069 14.4996 22.438 14.4996 20.7373C14.4996 19.0366 15.1752 17.4056 16.3778 16.203C17.5804 15.0004 19.2114 14.3248 20.9121 14.3248C22.6128 14.3248 24.2439 15.0004 25.4464 16.203C26.649 17.4056 27.3246 19.0366 27.3246 20.7373ZM21.5904 16.9753C21.5492 16.827 21.4606 16.6963 21.3381 16.6032C21.2156 16.5101 21.066 16.4597 20.9121 16.4597C20.7582 16.4597 20.6086 16.5101 20.4861 16.6032C20.3636 16.6963 20.275 16.827 20.2338 16.9753L19.5541 19.1584H17.3496C16.6599 19.1584 16.3721 20.0804 16.9307 20.5036L18.7119 21.8531L18.0322 24.0362C17.8184 24.7202 18.5708 25.2902 19.1294 24.867L20.9107 23.5175L22.6919 24.867C23.2505 25.2902 24.0029 24.7202 23.7892 24.0362L23.1095 21.8531L24.8907 20.5036C25.4493 20.0804 25.1615 19.1584 24.4718 19.1584H22.2701L21.589 16.9767L21.5904 16.9753Z" fill="#ECECEC"/>
</svg>
