<svg width="22" height="21" viewBox="0 0 22 21" fill="none" xmlns="http://www.w3.org/2000/svg">
<g opacity="0.5">
<path d="M16.6248 12.0174C17.2187 12.0174 17.7883 12.2533 18.2082 12.6733C18.6282 13.0932 18.8641 13.6628 18.8641 14.2567V14.7904C18.8641 17.4603 15.7217 19.4817 11.3998 19.4817C7.07801 19.4817 3.93555 17.5656 3.93555 14.7904V14.2567C3.93555 13.6628 4.17147 13.0932 4.59142 12.6733C5.01137 12.2533 5.58094 12.0174 6.17483 12.0174H16.6248ZM16.6248 13.137H6.17483C5.89662 13.137 5.62837 13.2406 5.42235 13.4276C5.21633 13.6145 5.08731 13.8715 5.06041 14.1484L5.05519 14.2567V14.7904C5.05519 16.7863 7.58484 18.362 11.3998 18.362C15.0767 18.362 17.6362 16.7908 17.7407 14.9105L17.7445 14.7904V14.2567C17.7445 13.9785 17.6409 13.7102 17.4539 13.5042C17.267 13.2982 17.01 13.1691 16.7331 13.1423L16.6248 13.137ZM11.3998 1.56738C11.988 1.56738 12.5703 1.68322 13.1137 1.90829C13.6571 2.13336 14.1508 2.46325 14.5667 2.87913C14.9825 3.295 15.3124 3.78871 15.5375 4.33208C15.7626 4.87544 15.8784 5.45782 15.8784 6.04595C15.8784 6.63409 15.7626 7.21646 15.5375 7.75983C15.3124 8.30319 14.9825 8.79691 14.5667 9.21278C14.1508 9.62866 13.6571 9.95854 13.1137 10.1836C12.5703 10.4087 11.988 10.5245 11.3998 10.5245C10.212 10.5245 9.0729 10.0527 8.233 9.21278C7.39311 8.37289 6.92126 7.23375 6.92126 6.04595C6.92126 4.85816 7.39311 3.71902 8.233 2.87913C9.0729 2.03923 10.212 1.56738 11.3998 1.56738ZM11.3998 2.68703C10.509 2.68703 9.65463 3.04091 9.02471 3.67083C8.39479 4.30075 8.0409 5.15511 8.0409 6.04595C8.0409 6.9368 8.39479 7.79115 9.02471 8.42107C9.65463 9.051 10.509 9.40488 11.3998 9.40488C12.2907 9.40488 13.145 9.051 13.775 8.42107C14.4049 7.79115 14.7588 6.9368 14.7588 6.04595C14.7588 5.15511 14.4049 4.30075 13.775 3.67083C13.145 3.04091 12.2907 2.68703 11.3998 2.68703Z" fill="#838383"/>
</g>
</svg>
