<svg width="27" height="28" viewBox="0 0 27 28" xmlns="http://www.w3.org/2000/svg">
<path d="M10.2988 5.58196C10.1955 5.68492 10.1137 5.80722 10.0578 5.94187C10.0019 6.07653 9.97314 6.22088 9.97314 6.36666C9.97314 6.51245 10.0019 6.6568 10.0578 6.79145C10.1137 6.9261 10.1955 7.04841 10.2988 7.15136L17.2746 14.125L10.2988 21.0986C10.0906 21.3067 9.97372 21.589 9.97372 21.8833C9.97372 22.1776 10.0906 22.4599 10.2988 22.668C10.5069 22.8761 10.7891 22.9931 11.0835 22.9931C11.3778 22.9931 11.66 22.8761 11.8682 22.668L19.6265 14.9097C19.7297 14.8067 19.8116 14.6844 19.8675 14.5498C19.9233 14.4151 19.9521 14.2708 19.9521 14.125C19.9521 13.9792 19.9233 13.8349 19.8675 13.7002C19.8116 13.5656 19.7297 13.4432 19.6265 13.3403L11.8682 5.58196C11.7652 5.47875 11.6429 5.39686 11.5082 5.34098C11.3736 5.28511 11.2292 5.25635 11.0835 5.25635C10.9377 5.25635 10.7933 5.28511 10.6587 5.34098C10.524 5.39686 10.4017 5.47875 10.2988 5.58196Z"/>
</svg>
