<svg width="21" height="22" viewBox="0 0 21 22" xmlns="http://www.w3.org/2000/svg">
<path d="M3.36553 10.2206C3.19231 10.2206 3.02618 10.2894 2.9037 10.4119C2.78121 10.5344 2.7124 10.7005 2.7124 10.8737C2.7124 11.047 2.78121 11.2131 2.9037 11.3356C3.02618 11.458 3.19231 11.5269 3.36553 11.5269H16.0322L10.7667 16.2659C10.7014 16.3228 10.648 16.3921 10.6097 16.4698C10.5714 16.5475 10.5489 16.632 10.5436 16.7185C10.5383 16.8049 10.5502 16.8916 10.5787 16.9734C10.6072 17.0552 10.6516 17.1305 10.7095 17.195C10.7674 17.2594 10.8375 17.3117 10.9158 17.3488C10.994 17.3859 11.0789 17.4071 11.1654 17.4111C11.252 17.415 11.3384 17.4018 11.4198 17.372C11.5011 17.3423 11.5758 17.2966 11.6393 17.2378L18.1706 11.3597C18.2388 11.2984 18.2933 11.2235 18.3306 11.1398C18.368 11.056 18.3873 10.9654 18.3873 10.8737C18.3873 10.7821 18.368 10.6914 18.3306 10.6077C18.2933 10.524 18.2388 10.4491 18.1706 10.3878L11.6393 4.50968C11.51 4.39712 11.3415 4.33994 11.1704 4.35048C10.9993 4.36102 10.8391 4.43844 10.7246 4.56603C10.61 4.69362 10.5502 4.86113 10.5581 5.03242C10.566 5.2037 10.6409 5.36502 10.7667 5.48153L16.0322 10.2206H3.36553Z"/>
</svg>
