<svg width="22" height="22" viewBox="0 0 22 22" fill="none" xmlns="http://www.w3.org/2000/svg">
<g opacity="0.5">
<path d="M9.55823 2.71582C8.44947 2.7157 7.35668 2.98023 6.37072 3.48741C5.38475 3.9946 4.53408 4.72979 3.88942 5.63188C3.24475 6.53397 2.82471 7.5769 2.6642 8.67399C2.5037 9.77108 2.60737 10.8906 2.96659 11.9396C3.32582 12.9886 3.93022 13.9366 4.72957 14.705C5.52892 15.4734 6.50012 16.0399 7.56245 16.3574C8.62479 16.6749 9.74756 16.7343 10.8375 16.5306C11.9273 16.3269 12.9529 15.8659 13.8288 15.1862L18.5208 19.8765C18.6012 19.9596 18.6973 20.026 18.8035 20.0716C18.9098 20.1173 19.024 20.1413 19.1397 20.1423C19.2553 20.1433 19.37 20.1213 19.477 20.0775C19.584 20.0337 19.6812 19.969 19.763 19.8873C19.8448 19.8055 19.9094 19.7083 19.9532 19.6012C19.997 19.4942 20.019 19.3795 20.018 19.2639C20.017 19.1483 19.993 19.034 19.9474 18.9278C19.9017 18.8215 19.8354 18.7254 19.7522 18.6451L15.0619 13.9548C15.8614 12.925 16.3559 11.6915 16.4892 10.3946C16.6224 9.09773 16.3891 7.78946 15.8158 6.61859C15.2424 5.44771 14.352 4.46122 13.2458 3.77129C12.1396 3.08136 10.862 2.71568 9.55823 2.71582ZM4.33323 9.68249C4.33323 8.29673 4.88372 6.96773 5.8636 5.98785C6.84348 5.00798 8.17248 4.45749 9.55823 4.45749C10.944 4.45749 12.273 5.00798 13.2529 5.98785C14.2327 6.96773 14.7832 8.29673 14.7832 9.68249C14.7832 11.0682 14.2327 12.3972 13.2529 13.3771C12.273 14.357 10.944 14.9075 9.55823 14.9075C8.17248 14.9075 6.84348 14.357 5.8636 13.3771C4.88372 12.3972 4.33323 11.0682 4.33323 9.68249Z" fill="#838383"/>
</g>
</svg>
