<svg width="22" height="22" viewBox="0 0 22 22" fill="none" xmlns="http://www.w3.org/2000/svg">
<path d="M10.0144 3.19C10.1052 3.00579 10.2457 2.85067 10.4201 2.74219C10.5945 2.63372 10.7957 2.57623 11.0011 2.57623C11.2065 2.57623 11.4077 2.63372 11.5821 2.74219C11.7565 2.85067 11.897 3.00579 11.9878 3.19L14.1108 7.491L18.8595 8.1818C19.0627 8.2113 19.2535 8.29708 19.4105 8.42941C19.5674 8.56175 19.6842 8.73537 19.7476 8.93064C19.811 9.1259 19.8185 9.33501 19.7693 9.53432C19.72 9.73362 19.616 9.91516 19.4689 10.0584L16.0325 13.4068L16.8443 18.1368C16.879 18.3391 16.8563 18.547 16.779 18.7372C16.7016 18.9273 16.5726 19.0919 16.4066 19.2125C16.2405 19.3332 16.044 19.4049 15.8393 19.4197C15.6346 19.4345 15.4299 19.3917 15.2482 19.2962L11.0022 17.0632L6.75399 19.2962C6.57228 19.3915 6.36752 19.4341 6.16288 19.4191C5.95823 19.4042 5.76185 19.3322 5.59592 19.2115C5.43 19.0908 5.30115 18.9261 5.22394 18.736C5.14673 18.5458 5.12423 18.3379 5.15899 18.1357L5.96969 13.4068L2.53329 10.0584C2.38622 9.91516 2.28217 9.73362 2.23291 9.53432C2.18365 9.33501 2.19115 9.1259 2.25456 8.93064C2.31797 8.73537 2.43475 8.56175 2.59171 8.42941C2.74867 8.29708 2.93952 8.2113 3.14269 8.1818L7.89139 7.4921L10.0144 3.1889V3.19ZM11.0011 3.6762L8.87809 7.9783C8.79915 8.13823 8.68251 8.27656 8.53821 8.38138C8.39391 8.48621 8.22629 8.55437 8.04979 8.58L3.29999 9.2708L6.73639 12.6192C6.86397 12.7437 6.95936 12.8974 7.01435 13.067C7.06935 13.2366 7.0823 13.417 7.05209 13.5927L6.24139 18.3227L10.4874 16.0897C10.6453 16.0066 10.821 15.9633 10.9994 15.9633C11.1779 15.9633 11.3536 16.0066 11.5115 16.0897L15.7586 18.3227L14.9479 13.5927C14.9177 13.417 14.9306 13.2366 14.9856 13.067C15.0406 12.8974 15.136 12.7437 15.2636 12.6192L18.7 9.2708L13.9513 8.58C13.775 8.5542 13.6076 8.48596 13.4635 8.38115C13.3194 8.27634 13.2029 8.13809 13.1241 7.9783L11.0011 3.6762Z" fill="#1C1C1C"/>
</svg>
